# Blender v2.90.0 OBJ File: ''
# www.blender.org
mtllib door.mtl
o Cube.002
v 1.000000 -0.955716 -0.128536
v 1.000000 -0.955716 0.124361
v -1.000000 -0.955716 0.124361
v -1.000000 -0.955716 -0.128536
v 1.000000 2.971811 -0.128536
v 0.999999 2.971811 0.124361
v -1.000000 2.971811 0.124361
v -1.000000 2.971811 -0.128536
vn 0.0000 -1.0000 0.0000
vn 0.0000 1.0000 0.0000
vn 1.0000 0.0000 0.0000
vn -0.0000 -0.0000 1.0000
vn -1.0000 -0.0000 -0.0000
vn 0.0000 0.0000 -1.0000
usemtl Material.001
s off
f 1//1 2//1 3//1 4//1
f 5//2 8//2 7//2 6//2
f 1//3 5//3 6//3 2//3
f 2//4 6//4 7//4 3//4
f 3//5 7//5 8//5 4//5
f 5//6 1//6 4//6 8//6
