# Blender v2.90.0 OBJ File: 'Player.blend'
# www.blender.org
mtllib PlayerShape.mtl
o Cube_Cube.001
v 0.260630 0.802618 0.157900
v 0.260630 1.738090 0.157900
v -0.260630 0.802618 0.157900
v -0.260630 1.738090 0.157900
v 0.260630 0.802618 -0.148706
v 0.260630 1.738090 -0.148706
v -0.260630 0.802618 -0.148706
v -0.260630 1.738090 -0.148706
v 0.260630 1.418548 0.157900
v -0.260630 1.418548 0.157900
v -0.260630 1.418548 -0.148706
v 0.260630 1.418548 -0.148706
v 0.000000 0.802618 0.157900
v 0.000000 1.738090 0.157900
v -0.000000 0.802618 -0.148706
v -0.000000 1.738090 -0.148706
v -0.000000 1.418548 -0.148706
v 0.000000 1.418548 0.157900
v -0.554791 1.738090 0.157900
v -0.554791 1.738090 -0.148706
v -0.554791 1.418548 0.157900
v -0.554791 1.418548 -0.148706
v -0.260630 0.857678 0.157900
v -0.260630 0.857678 -0.148706
v -0.554791 0.857678 0.157900
v -0.554791 0.857678 -0.148706
v 0.545145 1.418548 0.157900
v 0.545145 1.738090 0.157900
v 0.545145 1.738090 -0.148706
v 0.545145 1.418548 -0.148706
v 0.260630 0.859635 -0.148706
v 0.260630 0.859635 0.157900
v 0.545145 0.859635 -0.148706
v 0.545145 0.859635 0.157900
v -0.260630 -0.007552 -0.148706
v -0.260630 -0.007552 0.157900
v -0.000000 -0.007552 -0.148706
v 0.000000 -0.007552 0.157900
v 0.000000 -0.000363 0.157900
v 0.260630 -0.000363 0.157900
v 0.260630 -0.000363 -0.148706
v -0.000000 -0.000363 -0.148706
v -0.262666 1.738090 0.312376
v -0.262666 1.738090 -0.303182
v 0.260586 1.738090 0.312376
v 0.260586 1.738090 -0.303182
v 0.260586 2.271163 0.312376
v -0.262666 2.271163 0.312376
v -0.262666 2.271163 -0.303182
v 0.260586 2.271163 -0.303182
vt 0.539604 0.125000
vt 0.625000 0.125000
vt 0.625000 0.250000
vt 0.539604 0.250000
vt 0.625000 0.250000
vt 0.539604 0.250000
vt 0.539604 0.625000
vt 0.625000 0.625000
vt 0.625000 0.750000
vt 0.539604 0.750000
vt 0.625000 0.750000
vt 0.539604 0.750000
vt 0.375000 0.750000
vt 0.375000 1.000000
vt 0.375000 1.000000
vt 0.375000 0.750000
vt 0.875000 0.625000
vt 0.875000 0.750000
vt 0.539604 1.000000
vt 0.375000 0.625000
vt 0.375000 0.250000
vt 0.539604 0.500000
vt 0.375000 0.500000
vt 0.375000 0.125000
vt 0.375000 0.000000
vt 0.539604 0.000000
vt 0.625000 0.500000
vt 0.875000 0.500000
vt 0.375000 0.500000
vt 0.375000 0.250000
vt 0.625000 0.000000
vt 0.625000 0.500000
vt 0.539604 0.500000
vt 0.539604 0.250000
vt 0.539604 0.250000
vt 0.875000 0.500000
vt 0.539604 0.500000
vt 0.539604 0.500000
vt 0.625000 1.000000
vt 0.539604 1.000000
vt 0.875000 0.750000
vt 0.539604 0.000000
vt 0.539604 0.000000
vt 0.539604 0.000000
vt 0.625000 0.000000
vt 0.539604 1.000000
vt 0.539604 0.750000
vt 0.539604 0.750000
vt 0.539604 1.000000
vt 0.125000 0.500000
vt 0.375000 0.625000
vt 0.125000 0.625000
vt 0.375000 0.125000
vt 0.125000 0.625000
vt 0.125000 0.625000
vt 0.375000 0.625000
vt 0.125000 0.750000
vt 0.375000 0.125000
vt 0.375000 0.000000
vt 0.625000 0.500000
vt 0.625000 0.625000
vt 0.875000 0.625000
vt 0.875000 0.500000
vt 0.625000 0.500000
vt 0.875000 0.500000
vt 0.875000 0.625000
vt 0.625000 0.625000
vn 0.0000 0.0000 1.0000
vn -0.0000 0.0000 -1.0000
vn 1.0000 0.0000 0.0000
vn 0.0000 1.0000 -0.0000
vn -1.0000 0.0000 0.0000
vn 0.0000 -1.0000 0.0000
usemtl Material.001
s off
f 18/1/1 14/2/1 4/3/1 10/4/1
f 10/4/1 4/3/1 19/5/1 21/6/1
f 17/7/2 16/8/2 6/9/2 12/10/2
f 12/10/2 6/9/2 29/11/2 30/12/2
f 5/13/3 1/14/3 40/15/3 41/16/3
f 16/8/4 14/17/4 2/18/4 6/9/4
f 5/13/3 12/10/3 9/19/3 1/14/3
f 15/20/2 17/7/2 12/10/2 5/13/2
f 3/21/5 10/4/5 11/22/5 7/23/5
f 13/24/1 18/1/1 10/4/1 3/21/1
f 1/25/1 9/26/1 18/1/1 13/24/1
f 7/23/2 11/22/2 17/7/2 15/20/2
f 8/27/4 4/28/4 14/17/4 16/8/4
f 3/21/5 7/23/5 35/29/5 36/30/5
f 11/22/2 8/27/2 16/8/2 17/7/2
f 9/26/1 2/31/1 14/2/1 18/1/1
f 21/6/5 19/5/5 20/32/5 22/33/5
f 10/4/1 21/6/1 25/34/1 23/35/1
f 4/28/4 8/27/4 20/32/4 19/36/4
f 8/27/2 11/22/2 22/33/2 20/32/2
f 24/37/6 23/35/6 25/34/6 26/38/6
f 21/6/5 22/33/5 26/38/5 25/34/5
f 11/22/3 10/4/3 23/35/3 24/37/3
f 22/33/2 11/22/2 24/37/2 26/38/2
f 30/12/3 29/11/3 28/39/3 27/40/3
f 6/9/4 2/18/4 28/41/4 29/11/4
f 27/42/1 9/26/1 32/43/1 34/44/1
f 2/31/1 9/26/1 27/42/1 28/45/1
f 32/46/6 31/47/6 33/48/6 34/49/6
f 12/10/2 30/12/2 33/48/2 31/47/2
f 30/12/3 27/40/3 34/49/3 33/48/3
f 9/19/5 12/10/5 31/47/5 32/46/5
f 36/50/6 35/29/6 37/51/6 38/52/6
f 13/24/1 3/21/1 36/30/1 38/53/1
f 7/23/2 15/20/2 37/51/2 35/29/2
f 15/20/3 13/54/3 38/52/3 37/51/3
f 39/55/6 42/56/6 41/16/6 40/57/6
f 1/25/1 13/24/1 39/58/1 40/59/1
f 15/20/2 5/13/2 41/16/2 42/56/2
f 13/54/5 15/20/5 42/56/5 39/55/5
f 44/60/6 46/61/6 45/62/6 43/63/6
f 49/64/4 48/65/4 47/66/4 50/67/4
f 45/62/3 46/61/3 50/67/3 47/66/3
f 44/60/5 43/63/5 48/65/5 49/64/5
f 46/61/2 44/60/2 49/64/2 50/67/2
f 43/63/1 45/62/1 47/66/1 48/65/1
