# Blender v2.90.0 OBJ File: 'Player.blend'
# www.blender.org
mtllib PlayerSneak.mtl
o Cube_Cube.001
v 0.260630 0.784082 0.134832
v 0.260630 1.681815 0.397860
v -0.260630 0.784082 0.134832
v -0.260630 1.681815 0.397860
v 0.260630 0.870291 -0.159405
v 0.260630 1.768024 0.103623
v -0.260630 0.870291 -0.159405
v -0.260630 1.768024 0.103623
v 0.260630 1.375164 0.308014
v -0.260630 1.375164 0.308014
v -0.260630 1.461373 0.013776
v 0.260630 1.461373 0.013776
v 0.000000 0.784082 0.134832
v 0.000000 1.681815 0.397860
v -0.000000 0.870291 -0.159405
v -0.000000 1.768024 0.103623
v -0.000000 1.461373 0.013776
v 0.000000 1.375164 0.308014
v -0.260630 1.768193 0.101345
v -0.260630 1.681984 0.395582
v -0.260630 1.177111 -0.071837
v -0.260630 1.090902 0.222400
v 0.545145 1.375164 0.308013
v 0.545145 1.681815 0.397860
v 0.545145 1.768024 0.103623
v 0.545145 1.461373 0.013776
v 0.260630 0.925008 -0.143374
v 0.260630 0.838799 0.150863
v 0.545145 0.925008 -0.143374
v 0.545145 0.838799 0.150863
v -0.260630 -0.007552 -0.148706
v -0.260630 -0.007552 0.157900
v -0.000000 -0.007552 -0.148706
v 0.000000 -0.007552 0.157900
v 0.000000 -0.000363 0.157900
v 0.260630 -0.000363 0.157900
v 0.260630 -0.000363 -0.148706
v -0.000000 -0.000363 -0.148706
v -0.262666 1.700378 0.559070
v -0.262666 1.728514 -0.055844
v 0.260586 1.700378 0.559070
v 0.260586 1.728514 -0.055844
v 0.260586 2.232893 0.583436
v -0.262666 2.232893 0.583436
v -0.262666 2.261030 -0.031478
v 0.260586 2.261030 -0.031478
v -0.255733 0.925494 -0.145137
v -0.254092 1.767663 0.103323
v -0.257569 0.838699 0.148922
v -0.255928 1.680869 0.397382
v -0.254653 1.516226 0.029230
v -0.256489 1.429431 0.323289
v -0.539163 1.462155 0.011369
v -0.538602 1.768625 0.101830
v -0.540438 1.681830 0.395889
v -0.540999 1.375360 0.305428
v -0.257469 0.838352 0.148695
v -0.255633 0.925146 -0.145364
v -0.541979 0.839313 0.147202
v -0.540143 0.926108 -0.146857
vt 0.539604 0.125000
vt 0.625000 0.125000
vt 0.625000 0.250000
vt 0.539604 0.250000
vt 0.539604 0.625000
vt 0.625000 0.625000
vt 0.625000 0.750000
vt 0.539604 0.750000
vt 0.625000 0.750000
vt 0.539604 0.750000
vt 0.375000 0.750000
vt 0.375000 1.000000
vt 0.375000 1.000000
vt 0.375000 0.750000
vt 0.875000 0.625000
vt 0.875000 0.750000
vt 0.539604 1.000000
vt 0.375000 0.625000
vt 0.375000 0.250000
vt 0.539604 0.500000
vt 0.375000 0.500000
vt 0.375000 0.125000
vt 0.375000 0.000000
vt 0.539604 0.000000
vt 0.625000 0.500000
vt 0.875000 0.500000
vt 0.375000 0.500000
vt 0.375000 0.250000
vt 0.625000 0.000000
vt 0.375000 0.250000
vt 0.539604 0.250000
vt 0.539604 0.500000
vt 0.375000 0.500000
vt 0.625000 1.000000
vt 0.539604 1.000000
vt 0.875000 0.750000
vt 0.539604 0.000000
vt 0.539604 0.000000
vt 0.539604 0.000000
vt 0.625000 0.000000
vt 0.539604 1.000000
vt 0.539604 0.750000
vt 0.539604 0.750000
vt 0.539604 1.000000
vt 0.125000 0.500000
vt 0.375000 0.625000
vt 0.125000 0.625000
vt 0.375000 0.125000
vt 0.125000 0.625000
vt 0.125000 0.625000
vt 0.375000 0.625000
vt 0.125000 0.750000
vt 0.375000 0.125000
vt 0.375000 0.000000
vt 0.625000 0.500000
vt 0.625000 0.625000
vt 0.875000 0.625000
vt 0.875000 0.500000
vt 0.625000 0.500000
vt 0.875000 0.500000
vt 0.875000 0.625000
vt 0.625000 0.625000
vt 0.539604 0.750000
vt 0.625000 0.750000
vt 0.625000 0.750000
vt 0.539604 0.750000
vt 0.375000 0.750000
vt 0.539604 1.000000
vt 0.375000 1.000000
vt 0.625000 1.000000
vt 0.539604 1.000000
vt 0.875000 0.750000
vt 0.875000 0.750000
vt 0.539604 0.000000
vt 0.539604 0.000000
vt 0.539604 0.000000
vt 0.539604 0.000000
vt 0.625000 0.000000
vt 0.625000 0.000000
vt 0.539604 1.000000
vt 0.539604 0.750000
vt 0.539604 0.750000
vt 0.539604 1.000000
vn 0.0000 -0.2812 0.9597
vn -0.0000 0.2812 -0.9597
vn 1.0000 0.0000 0.0000
vn 0.0000 0.9597 0.2812
vn -1.0000 0.0000 0.0000
vn -0.0000 -0.9597 -0.2812
vn 0.0000 -1.0000 0.0000
vn 0.0000 0.0291 0.9996
vn -0.0000 -0.0122 -0.9999
vn 0.0000 0.0294 0.9996
vn 0.0000 -0.0123 -0.9999
vn 0.0000 -0.9990 -0.0457
vn 0.0000 0.9990 0.0457
vn -0.0000 0.0457 -0.9990
vn 0.0000 -0.0457 0.9990
vn -0.0062 -0.2829 0.9591
vn -1.0000 0.0034 -0.0052
vn 0.0018 0.9591 0.2831
vn 0.0062 0.2832 -0.9590
vn 0.0062 0.2829 -0.9591
vn -0.0018 -0.9591 -0.2831
vn -0.0062 -0.2832 0.9590
usemtl Material.001
s off
f 18/1/1 14/2/1 4/3/1 10/4/1
f 17/5/2 16/6/2 6/7/2 12/8/2
f 12/8/2 6/7/2 25/9/2 26/10/2
f 5/11/3 1/12/3 36/13/3 37/14/3
f 16/6/4 14/15/4 2/16/4 6/7/4
f 5/11/3 12/8/3 9/17/3 1/12/3
f 15/18/2 17/5/2 12/8/2 5/11/2
f 3/19/5 10/4/5 11/20/5 7/21/5
f 13/22/1 18/1/1 10/4/1 3/19/1
f 1/23/1 9/24/1 18/1/1 13/22/1
f 7/21/2 11/20/2 17/5/2 15/18/2
f 8/25/4 4/26/4 14/15/4 16/6/4
f 3/19/5 7/21/5 31/27/5 32/28/5
f 11/20/2 8/25/2 16/6/2 17/5/2
f 9/24/1 2/29/1 14/2/1 18/1/1
f 22/30/5 20/31/5 19/32/5 21/33/5
f 26/10/3 25/9/3 24/34/3 23/35/3
f 6/7/4 2/16/4 24/36/4 25/9/4
f 23/37/1 9/24/1 28/38/1 30/39/1
f 2/29/1 9/24/1 23/37/1 24/40/1
f 28/41/6 27/42/6 29/43/6 30/44/6
f 12/8/2 26/10/2 29/43/2 27/42/2
f 26/10/3 23/35/3 30/44/3 29/43/3
f 9/17/5 12/8/5 27/42/5 28/41/5
f 32/45/7 31/27/7 33/46/7 34/47/7
f 13/22/8 3/19/8 32/28/8 34/48/8
f 7/21/9 15/18/9 33/46/9 31/27/9
f 15/18/3 13/49/3 34/47/3 33/46/3
f 35/50/7 38/51/7 37/14/7 36/52/7
f 1/23/10 13/22/10 35/53/10 36/54/10
f 15/18/11 5/11/11 37/14/11 38/51/11
f 13/49/5 15/18/5 38/51/5 35/50/5
f 40/55/12 42/56/12 41/57/12 39/58/12
f 45/59/13 44/60/13 43/61/13 46/62/13
f 41/57/3 42/56/3 46/62/3 43/61/3
f 40/55/5 39/58/5 44/60/5 45/59/5
f 42/56/14 40/55/14 45/59/14 46/62/14
f 39/58/15 41/57/15 43/61/15 44/60/15
f 52/63/16 50/64/16 55/65/16 56/66/16
f 49/67/17 52/63/17 51/68/17 47/69/17
f 56/66/17 55/65/17 54/70/17 53/71/17
f 50/64/18 48/72/18 54/73/18 55/65/18
f 53/74/19 51/75/19 58/76/19 60/77/19
f 48/78/20 51/75/20 53/74/20 54/79/20
f 58/80/21 57/81/21 59/82/21 60/83/21
f 52/63/22 56/66/22 59/82/22 57/81/22
f 56/66/17 53/71/17 60/83/17 59/82/17
